<?xml version="1.0" encoding="UTF-8" standalone="no"?>
<!-- Created with Inkscape (http://www.inkscape.org/) -->

<svg
   width="56.599983"
   height="50.939983"
   viewBox="0 0 14.975412 13.477871"
   version="1.1"
   id="svg5"
   xmlns:inkscape="http://www.inkscape.org/namespaces/inkscape"
   xmlns:sodipodi="http://sodipodi.sourceforge.net/DTD/sodipodi-0.dtd"
   xmlns="http://www.w3.org/2000/svg"
   xmlns:svg="http://www.w3.org/2000/svg">
  <sodipodi:namedview
     id="namedview7"
     pagecolor="#ffffff"
     bordercolor="#000000"
     borderopacity="0.25"
     inkscape:showpageshadow="2"
     inkscape:pageopacity="0.0"
     inkscape:pagecheckerboard="0"
     inkscape:deskcolor="#d1d1d1"
     inkscape:document-units="px"
     showgrid="false"
     showguides="true">
    <inkscape:grid
       type="xygrid"
       id="grid236"
       originx="0"
       originy="0" />
    <sodipodi:guide
       position="-49.679954,32.341515"
       orientation="0,-1"
       id="guide1217"
       inkscape:locked="false" />
  </sodipodi:namedview>
  <defs
     id="defs2" />
  <g
     inkscape:label="Layer 1"
     inkscape:groupmode="layer"
     id="layer1"
     transform="translate(0,-3.3072915)">
    <path
       id="rect234"
       style="fill:#281f14;fill-rule:evenodd;stroke-width:0.1698"
       d="M 0,3.3072916 V 16.785162 H 14.975411 V 3.3072916 Z m 1.1980329,0.7487705 h 2.3960657 c 0.1659272,0 0.2995081,0.133581 0.2995081,0.2995083 v 2.3960659 c 0,0.1659271 -0.1335809,0.2995082 -0.2995081,0.2995082 H 1.1980329 c -0.1659272,0 -0.29950827,-0.1335811 -0.29950827,-0.2995082 V 4.3555704 c 0,-0.1659273 0.13358107,-0.2995083 0.29950827,-0.2995083 z m 10.1832791,0 h 2.396066 c 0.165927,0 0.299508,0.133581 0.299508,0.2995083 v 2.3960659 c 0,0.1659271 -0.133581,0.2995082 -0.299508,0.2995082 h -2.396066 c -0.165927,0 -0.299508,-0.1335811 -0.299508,-0.2995082 V 4.3555704 c 0,-0.1659273 0.133581,-0.2995083 0.299508,-0.2995083 z M 1.1980329,8.5486854 h 2.3960657 c 0.1659272,0 0.2995081,0.1335807 0.2995081,0.2995082 v 2.3960654 c 0,0.165927 -0.1335809,0.299508 -0.2995081,0.299508 H 1.1980329 c -0.1659272,0 -0.29950827,-0.133581 -0.29950827,-0.299508 V 8.8481936 c 0,-0.1659275 0.13358107,-0.2995082 0.29950827,-0.2995082 z m 10.1832791,0 h 2.396066 c 0.165927,0 0.299508,0.1335807 0.299508,0.2995082 v 2.3960654 c 0,0.165927 -0.133581,0.299508 -0.299508,0.299508 h -2.396066 c -0.165927,0 -0.299508,-0.133581 -0.299508,-0.299508 V 8.8481936 c 0,-0.1659275 0.133581,-0.2995082 0.299508,-0.2995082 z M 1.1980329,13.041309 h 2.3960657 c 0.1659272,0 0.2995081,0.13358 0.2995081,0.299508 v 2.396066 c 0,0.165927 -0.1335809,0.299508 -0.2995081,0.299508 H 1.1980329 c -0.1659272,0 -0.29950827,-0.133581 -0.29950827,-0.299508 v -2.396066 c 0,-0.165928 0.13358107,-0.299508 0.29950827,-0.299508 z m 10.1832791,0 h 2.396066 c 0.165927,0 0.299508,0.13358 0.299508,0.299508 v 2.396066 c 0,0.165927 -0.133581,0.299508 -0.299508,0.299508 h -2.396066 c -0.165927,0 -0.299508,-0.133581 -0.299508,-0.299508 v -2.396066 c 0,-0.165928 0.133581,-0.299508 0.299508,-0.299508 z"
       inkscape:export-filename="film.svg"
       inkscape:export-xdpi="96"
       inkscape:export-ydpi="96" />
  </g>
</svg>
